<svg id="Capa_1" enable-background="new 0 0 512.011 512.011" height="512" viewBox="0 0 512.011 512.011" width="512" xmlns="http://www.w3.org/2000/svg" xmlns:xlink="http://www.w3.org/1999/xlink"><linearGradient id="SVGID_1_" gradientUnits="userSpaceOnUse" x1="256.005" x2="256.005" y1="360.006" y2=".006"><stop offset="0" stop-color="#5558ff"/><stop offset="1" stop-color="#00c0ff"/></linearGradient><linearGradient id="SVGID_2_" gradientUnits="userSpaceOnUse" x1="271.006" x2="271.006" y1="512.005" y2="110.175"><stop offset="0" stop-color="#addcff"/><stop offset=".5028" stop-color="#eaf6ff"/><stop offset="1" stop-color="#eaf6ff"/></linearGradient><g><g><g><path d="m510.934 182.269c-2.988-17.768-12.813-33.865-27.663-45.327-14.151-10.922-31.879-16.937-49.917-16.937h-53.471c-16.342-29.953-48.437-48.045-83.189-55.802 2.76-5.827 4.311-12.334 4.311-19.198 0-24.813-20.187-45-45-45s-45 20.187-45 45c0 6.84 1.541 13.324 4.283 19.135-34.815 7.7-66.595 25.755-83.008 55.865h-53.623c-.001 0 0 0-.001 0-18.037 0-35.766 6.015-49.917 16.937-14.851 11.461-24.675 27.559-27.663 45.327-3.449 20.507 1.454 40.916 13.807 57.465 2.12 2.841 4.134 5.493 6.033 7.993 18.08 23.807 21.338 28.097 12.826 53.632l-2.968 8.903c-1.524 4.575-.758 9.603 2.062 13.514s7.348 6.229 12.169 6.229c47.559 0 87.901-31.188 101.283-74h219.434c13.382 42.812 53.724 74 101.283 74 4.821 0 9.35-2.318 12.169-6.229s3.586-8.939 2.062-13.514l-2.968-8.903c-8.512-25.535-5.254-29.825 12.826-53.631 1.899-2.501 3.913-5.153 6.034-7.995 12.354-16.549 17.256-36.958 13.806-57.464zm-358.134-15.263 1.902-30.181 78.131 28.181h46.345l77.082-27.621 2.414 29.621zm223.205 163c-8.271 0-15-6.729-15-15v-40.625c0-8.284-6.716-15-15-15s-15 6.716-15 15v40.625c0 24.813 20.187 45 45 45 8.284 0 15-6.716 15-15s-6.716-15-15-15zm-210-70.625c-8.284 0-15 6.716-15 15v40.625c0 8.271-6.729 15-15 15-8.284 0-15 6.716-15 15s6.716 15 15 15c24.813 0 45-20.187 45-45v-40.625c0-8.285-6.716-15-15-15z" fill="url(#SVGID_1_)"/></g></g><g><g><path d="m406.006 392.005h-60c-8.284 0-15 6.716-15 15 0 8.271-6.729 15-15 15s-15-6.729-15-15v-84.68c53.541-18.859 90-69.642 90-127.32v-30c0-13.425-2.509-25.962-7.416-37.413-12.365-9.894-26.978-15.837-42.705-17.146-22.934-1.907-45.434 6.327-61.707 22.6l-12.566 12.566c-2.813 2.813-6.629 4.393-10.606 4.393-3.979 0-7.794-1.581-10.606-4.394l-12.565-12.566c-15.954-15.954-38.021-24.224-60.544-22.688-16.033 1.094-31.009 7.021-43.654 17.064-5.022 11.592-7.63 24.23-7.63 37.583v30c0 57.675 36.465 108.459 90 127.32v84.68c0 57.897 47.103 105 105 105s105-47.103 105-105c-.001-8.283-6.717-14.999-15.001-14.999zm-180-151.999c-8.284 0-15-6.716-15-15s6.716-15 15-15 15 6.716 15 15-6.716 15-15 15zm60 0c-8.284 0-15-6.716-15-15s6.716-15 15-15 15 6.716 15 15-6.716 15-15 15z" fill="url(#SVGID_2_)"/></g></g></g></svg>